# Blender 4.1.1
# www.blender.org
mtllib foot_2.mtl
o Cube
v 1.000000 0.111096 -1.000000
v 1.000000 -0.300000 -1.000000
v 1.000000 0.098585 1.031564
v 1.000000 0.081900 1.031564
v -1.000000 0.111096 -1.000000
v -1.000000 -0.297092 -1.000000
v -1.000000 0.098585 1.031564
v -1.000000 0.083205 1.031564
v -1.000000 -0.211182 0.248268
v 1.000000 0.087623 0.225037
v -1.000000 0.087623 0.225037
v 1.000000 -0.201855 0.248268
v -1.000000 0.092073 -0.314147
v 1.000000 -0.282468 -0.285927
v -1.000000 -0.291795 -0.285927
v 1.000000 0.092073 -0.314147
v -1.000000 -0.106291 0.713423
v 1.000000 0.097143 0.685853
v -1.000000 0.097143 0.685853
v 1.000000 -0.096963 0.713423
v -1.000000 0.090682 0.465939
v 1.000000 -0.152607 0.490073
v -1.000000 -0.161935 0.490073
v 1.000000 0.090682 0.465939
v -1.000000 -0.041185 0.908697
v 1.000000 0.098665 0.868757
v -1.000000 0.098665 0.868757
v 1.000000 -0.031857 0.908697
v -1.000000 0.098665 -0.631243
v 1.000000 -0.310114 -0.588001
v -1.000000 -0.319441 -0.588001
v 1.000000 0.098665 -0.631243
v -1.000000 -0.254687 -0.009859
v 1.000000 0.090682 -0.034061
v -1.000000 0.090682 -0.034061
v 1.000000 -0.245360 -0.009859
v 0.000000 -0.482467 -1.000000
v 0.000000 -0.083857 1.031564
v 0.000000 -0.100568 1.031564
v 0.000000 -0.055240 -1.000000
v 0.000000 -0.384322 0.248268
v 0.000000 -0.086980 0.225037
v 0.000000 -0.077034 -0.314147
v 0.000000 -0.464935 -0.285927
v 0.000000 -0.279431 0.713423
v 0.000000 -0.081783 0.685853
v 0.000000 -0.086248 0.465939
v 0.000000 -0.335075 0.490073
v 0.000000 -0.214324 0.908697
v 0.000000 -0.082094 0.868757
v 0.000000 -0.492581 -0.588001
v 0.000000 -0.067674 -0.631243
v 0.000000 -0.081118 -0.034061
v 0.000000 -0.427827 -0.009859
v -0.494576 -0.458589 -1.000000
v -0.494576 -0.059975 1.031564
v -0.494576 -0.360443 0.248268
v -0.494576 -0.441056 -0.285927
v -0.494576 -0.255552 0.713423
v -0.494576 -0.311196 0.490073
v -0.494576 -0.190446 0.908697
v -0.494576 -0.468702 -0.588001
v -0.494576 -0.403948 -0.009859
v -0.494576 -0.076689 1.031564
v -0.494576 -0.028631 -1.000000
v -0.494576 -0.061850 0.225037
v -0.494576 -0.050942 -0.314147
v -0.494576 -0.057358 0.685853
v -0.494576 -0.061503 0.465939
v -0.494576 -0.057955 0.868757
v -0.494576 -0.041065 -0.631243
v -0.494576 -0.055507 -0.034061
v 0.500000 -0.076122 1.031564
v 0.500000 -0.027987 -1.000000
v 0.500000 -0.061248 0.225037
v 0.500000 -0.050313 -0.314147
v 0.500000 -0.056776 0.685853
v 0.500000 -0.060912 0.465939
v 0.500000 -0.057381 0.868757
v 0.500000 -0.040421 -0.631243
v 0.500000 -0.054891 -0.034061
v 0.500000 -0.458021 -1.000000
v 0.500000 -0.059407 1.031564
v 0.500000 -0.359876 0.248268
v 0.500000 -0.440489 -0.285927
v 0.500000 -0.254985 0.713423
v 0.500000 -0.310629 0.490073
v 0.500000 -0.189878 0.908697
v 0.500000 -0.468135 -0.588001
v 0.500000 -0.403381 -0.009859
v -0.747288 -0.421250 -1.000000
v -0.747288 -0.022627 1.031564
v -0.747288 -0.323104 0.248268
v -0.747288 -0.403717 -0.285927
v -0.747288 -0.218213 0.713423
v -0.747288 -0.273857 0.490073
v -0.747288 -0.153107 0.908697
v -0.747288 -0.431363 -0.588001
v -0.747288 -0.366609 -0.009859
v -0.747288 -0.039350 1.031564
v -0.747288 0.015834 -1.000000
v -0.747288 -0.021434 0.225037
v -0.747288 -0.007949 -0.314147
v -0.747288 -0.018709 0.685853
v -0.747288 -0.022063 0.465939
v -0.747288 -0.019999 0.868757
v -0.747288 0.003399 -0.631243
v -0.747288 -0.013828 -0.034061
v -0.247288 -0.094900 1.031564
v -0.247288 -0.049003 -1.000000
v -0.247288 -0.081049 0.225037
v -0.247288 -0.070903 -0.314147
v -0.247288 -0.076000 0.685853
v -0.247288 -0.080398 0.465939
v -0.247288 -0.076372 0.868757
v -0.247288 -0.061437 -0.631243
v -0.247288 -0.075086 -0.034061
v -0.247288 -0.476800 -1.000000
v -0.247288 -0.078189 1.031564
v -0.247288 -0.378655 0.248268
v -0.247288 -0.459268 -0.285927
v -0.247288 -0.273764 0.713423
v -0.247288 -0.329408 0.490073
v -0.247288 -0.208657 0.908697
v -0.247288 -0.486914 -0.588001
v -0.247288 -0.422160 -0.009859
v 0.250000 -0.476673 -1.000000
v 0.250000 -0.078062 1.031564
v 0.250000 -0.378528 0.248268
v 0.250000 -0.459141 -0.285927
v 0.250000 -0.273636 0.713423
v 0.250000 -0.329280 0.490073
v 0.250000 -0.208530 0.908697
v 0.250000 -0.486787 -0.588001
v 0.250000 -0.422033 -0.009859
v 0.250000 -0.094773 1.031564
v 0.250000 -0.048863 -1.000000
v 0.250000 -0.080916 0.225037
v 0.250000 -0.070765 -0.314147
v 0.250000 -0.075871 0.685853
v 0.250000 -0.080266 0.465939
v 0.250000 -0.076244 0.868757
v 0.250000 -0.061296 -0.631243
v 0.250000 -0.074951 -0.034061
v 0.750000 -0.038791 1.031564
v 0.750000 0.016547 -1.000000
v 0.750000 -0.020812 0.225037
v 0.750000 -0.007271 -0.314147
v 0.750000 -0.018124 0.685853
v 0.750000 -0.021462 0.465939
v 0.750000 -0.019428 0.868757
v 0.750000 0.004111 -0.631243
v 0.750000 -0.013179 -0.034061
v 0.750000 -0.420691 -1.000000
v 0.750000 -0.022068 1.031564
v 0.750000 -0.322545 0.248268
v 0.750000 -0.403159 -0.285927
v 0.750000 -0.217654 0.713423
v 0.750000 -0.273298 0.490073
v 0.750000 -0.152548 0.908697
v 0.750000 -0.430804 -0.588001
v 0.750000 -0.366050 -0.009859
vn 0.4288 0.9034 0.0075
vn -0.0000 -0.0000 1.0000
vn -1.0000 -0.0000 -0.0000
vn 0.3339 -0.6917 0.6404
vn 1.0000 -0.0000 -0.0000
vn -0.0000 -0.0000 -1.0000
vn 0.4298 -0.8904 0.1501
vn 0.3892 0.9210 0.0190
vn 0.3603 0.9325 0.0264
vn 0.4333 -0.8975 0.0821
vn 0.4242 -0.8787 0.2189
vn 0.4120 0.9110 -0.0203
vn 0.4018 0.9157 -0.0046
vn 0.4276 -0.8858 0.1804
vn 0.4164 -0.8625 0.2876
vn 0.4209 0.9071 -0.0006
vn 0.4346 -0.9003 -0.0221
vn 0.3526 0.9353 0.0315
vn 0.3751 0.9269 0.0120
vn 0.4316 -0.8940 0.1202
vn -0.0227 -0.9908 0.1332
vn -0.0249 0.9996 0.0148
vn -0.0255 0.9991 0.0337
vn -0.0229 -0.9994 -0.0245
vn -0.0235 0.9997 0.0019
vn -0.0217 -0.9484 0.3162
vn -0.0225 -0.9796 0.1995
vn -0.0241 0.9997 -0.0029
vn -0.0238 0.9995 -0.0201
vn -0.0222 -0.9701 0.2417
vn -0.0228 -0.9956 0.0911
vn -0.0253 0.9992 0.0297
vn -0.0244 0.9994 0.0228
vn -0.0226 -0.9858 0.1662
vn -0.0168 -0.7337 0.6793
vn -0.0233 0.9997 0.0110
vn -0.1078 -0.7295 0.6754
vn -0.1442 -0.9758 0.1645
vn -0.1456 -0.9852 0.0902
vn -0.1419 -0.9605 0.2393
vn -0.1433 -0.9698 0.1975
vn -0.1388 -0.9395 0.3132
vn -0.1461 -0.9890 -0.0243
vn -0.1449 -0.9806 0.1318
vn 0.0797 0.9967 0.0156
vn 0.0821 0.9961 0.0336
vn 0.0747 0.9972 0.0026
vn 0.0768 0.9970 -0.0021
vn 0.0757 0.9969 -0.0194
vn 0.0812 0.9962 0.0304
vn 0.0781 0.9967 0.0237
vn 0.0739 0.9972 0.0118
vn -0.1489 0.9888 0.0142
vn -0.1621 0.9864 0.0266
vn -0.1724 0.9845 0.0330
vn -0.1543 0.9879 -0.0168
vn -0.1578 0.9875 0.0006
vn -0.1514 0.9885 0.0052
vn -0.1753 0.9840 0.0332
vn -0.1671 0.9858 0.0185
vn 0.0737 -0.9884 0.1329
vn 0.0744 -0.9969 -0.0245
vn 0.0706 -0.9463 0.3155
vn 0.0729 -0.9773 0.1990
vn 0.0722 -0.9678 0.2411
vn 0.0741 -0.9931 0.0909
vn 0.0734 -0.9834 0.1657
vn 0.0547 -0.7327 0.6784
vn -0.4019 -0.9075 0.1220
vn -0.4229 -0.9055 -0.0357
vn -0.3873 -0.8746 0.2916
vn -0.3981 -0.8989 0.1831
vn -0.3948 -0.8915 0.2221
vn -0.4035 -0.9112 0.0834
vn -0.4002 -0.9037 0.1523
vn -0.3161 -0.6813 0.6603
vn 0.1652 0.9861 0.0184
vn 0.1732 0.9843 0.0332
vn 0.1499 0.9887 0.0051
vn 0.1561 0.9877 0.0006
vn 0.1527 0.9881 -0.0168
vn 0.1704 0.9848 0.0330
vn 0.1603 0.9867 0.0266
vn 0.1474 0.9890 0.0141
vn 0.0230 0.9997 0.0110
vn 0.0242 0.9994 0.0228
vn 0.0250 0.9992 0.0297
vn 0.0235 0.9995 -0.0201
vn 0.0238 0.9997 -0.0029
vn 0.0233 0.9997 0.0019
vn 0.0252 0.9991 0.0337
vn 0.0246 0.9996 0.0148
vn -0.0540 -0.7327 0.6784
vn -0.0724 -0.9835 0.1658
vn -0.0731 -0.9932 0.0909
vn -0.0713 -0.9679 0.2411
vn -0.0720 -0.9773 0.1991
vn -0.0697 -0.9464 0.3155
vn -0.0734 -0.9970 -0.0245
vn -0.0728 -0.9885 0.1329
vn 0.0170 -0.7337 0.6793
vn 0.0228 -0.9858 0.1662
vn 0.0231 -0.9956 0.0911
vn 0.0225 -0.9701 0.2417
vn 0.0227 -0.9796 0.1995
vn 0.0220 -0.9484 0.3162
vn 0.0232 -0.9994 -0.0245
vn 0.0230 -0.9908 0.1332
vn -0.0748 0.9971 0.0118
vn -0.0792 0.9966 0.0237
vn -0.0823 0.9961 0.0304
vn -0.0767 0.9969 -0.0193
vn -0.0778 0.9970 -0.0020
vn -0.0757 0.9971 0.0027
vn -0.0832 0.9960 0.0336
vn -0.0808 0.9966 0.0156
vn -0.3765 0.9263 0.0121
vn -0.3536 0.9349 0.0315
vn -0.4229 0.9062 -0.0005
vn -0.4036 0.9149 -0.0046
vn -0.4139 0.9101 -0.0203
vn -0.3614 0.9320 0.0264
vn -0.3908 0.9203 0.0190
vn -0.4309 0.9024 0.0075
vn 0.1464 -0.9804 0.1318
vn 0.1476 -0.9887 -0.0243
vn 0.1403 -0.9393 0.3132
vn 0.1448 -0.9696 0.1975
vn 0.1434 -0.9603 0.2392
vn 0.1471 -0.9850 0.0901
vn 0.1457 -0.9756 0.1644
vn 0.1089 -0.7294 0.6753
vt 0.843411 0.718750
vt 0.875000 0.718750
vt 0.875000 0.750000
vt 0.843411 0.750000
vt 0.375000 0.968411
vt 0.625000 0.968411
vt 0.625000 1.000000
vt 0.375000 1.000000
vt 0.375000 0.218750
vt 0.625000 0.218750
vt 0.625000 0.250000
vt 0.375000 0.250000
vt 0.343750 0.718750
vt 0.375000 0.718750
vt 0.375000 0.750000
vt 0.343750 0.750000
vt 0.625000 0.718750
vt 0.625000 0.750000
vt 0.375000 0.468750
vt 0.625000 0.468750
vt 0.625000 0.500000
vt 0.375000 0.500000
vt 0.375000 0.593750
vt 0.625000 0.593750
vt 0.625000 0.625000
vt 0.375000 0.625000
vt 0.343750 0.593750
vt 0.343750 0.625000
vt 0.375000 0.093750
vt 0.625000 0.093750
vt 0.625000 0.125000
vt 0.375000 0.125000
vt 0.843411 0.593750
vt 0.875000 0.593750
vt 0.875000 0.625000
vt 0.843411 0.625000
vt 0.843411 0.531250
vt 0.875000 0.531250
vt 0.875000 0.562500
vt 0.843411 0.562500
vt 0.343750 0.531250
vt 0.375000 0.531250
vt 0.375000 0.562500
vt 0.343750 0.562500
vt 0.625000 0.531250
vt 0.625000 0.562500
vt 0.375000 0.156250
vt 0.625000 0.156250
vt 0.625000 0.187500
vt 0.375000 0.187500
vt 0.375000 0.031250
vt 0.625000 0.031250
vt 0.625000 0.062500
vt 0.375000 0.062500
vt 0.375000 0.656250
vt 0.625000 0.656250
vt 0.625000 0.687500
vt 0.375000 0.687500
vt 0.343750 0.656250
vt 0.343750 0.687500
vt 0.843411 0.656250
vt 0.875000 0.656250
vt 0.875000 0.687500
vt 0.843411 0.687500
vt 0.375000 0.000000
vt 0.625000 0.000000
vt 0.343750 0.500000
vt 0.843411 0.500000
vt 0.875000 0.500000
vt 0.219089 0.562500
vt 0.250000 0.562500
vt 0.250000 0.593750
vt 0.219089 0.593750
vt 0.718750 0.562500
vt 0.750000 0.562500
vt 0.750000 0.593750
vt 0.718750 0.593750
vt 0.718750 0.500000
vt 0.750000 0.500000
vt 0.750000 0.531250
vt 0.718750 0.531250
vt 0.219089 0.500000
vt 0.250000 0.500000
vt 0.250000 0.531250
vt 0.219089 0.531250
vt 0.718750 0.687500
vt 0.750000 0.687500
vt 0.750000 0.718750
vt 0.718750 0.718750
vt 0.219089 0.687500
vt 0.250000 0.687500
vt 0.250000 0.718750
vt 0.219089 0.718750
vt 0.219089 0.625000
vt 0.250000 0.625000
vt 0.250000 0.656250
vt 0.219089 0.656250
vt 0.718750 0.625000
vt 0.750000 0.625000
vt 0.750000 0.656250
vt 0.718750 0.656250
vt 0.375000 0.344089
vt 0.625000 0.344089
vt 0.625000 0.375000
vt 0.375000 0.375000
vt 0.250000 0.750000
vt 0.219089 0.750000
vt 0.375000 0.843750
vt 0.625000 0.843750
vt 0.625000 0.875000
vt 0.375000 0.875000
vt 0.750000 0.750000
vt 0.718750 0.750000
vt 0.156589 0.718750
vt 0.188178 0.718750
vt 0.188178 0.750000
vt 0.156589 0.750000
vt 0.375000 0.281589
vt 0.625000 0.281589
vt 0.625000 0.313178
vt 0.375000 0.313178
vt 0.156589 0.593750
vt 0.188178 0.593750
vt 0.188178 0.625000
vt 0.156589 0.625000
vt 0.156589 0.531250
vt 0.188178 0.531250
vt 0.188178 0.562500
vt 0.156589 0.562500
vt 0.156589 0.656250
vt 0.188178 0.656250
vt 0.188178 0.687500
vt 0.156589 0.687500
vt 0.156589 0.500000
vt 0.188178 0.500000
vt 0.780911 0.562500
vt 0.811822 0.562500
vt 0.811822 0.593750
vt 0.780911 0.593750
vt 0.780911 0.500000
vt 0.811822 0.500000
vt 0.811822 0.531250
vt 0.780911 0.531250
vt 0.780911 0.687500
vt 0.811822 0.687500
vt 0.811822 0.718750
vt 0.780911 0.718750
vt 0.780911 0.625000
vt 0.811822 0.625000
vt 0.811822 0.656250
vt 0.780911 0.656250
vt 0.375000 0.905911
vt 0.625000 0.905911
vt 0.625000 0.936822
vt 0.375000 0.936822
vt 0.811822 0.750000
vt 0.780911 0.750000
vt 0.656250 0.718750
vt 0.687500 0.718750
vt 0.687500 0.750000
vt 0.656250 0.750000
vt 0.375000 0.781250
vt 0.625000 0.781250
vt 0.625000 0.812500
vt 0.375000 0.812500
vt 0.656250 0.593750
vt 0.687500 0.593750
vt 0.687500 0.625000
vt 0.656250 0.625000
vt 0.656250 0.531250
vt 0.687500 0.531250
vt 0.687500 0.562500
vt 0.656250 0.562500
vt 0.656250 0.656250
vt 0.687500 0.656250
vt 0.687500 0.687500
vt 0.656250 0.687500
vt 0.656250 0.500000
vt 0.687500 0.500000
vt 0.281250 0.562500
vt 0.312500 0.562500
vt 0.312500 0.593750
vt 0.281250 0.593750
vt 0.281250 0.500000
vt 0.312500 0.500000
vt 0.312500 0.531250
vt 0.281250 0.531250
vt 0.281250 0.687500
vt 0.312500 0.687500
vt 0.312500 0.718750
vt 0.281250 0.718750
vt 0.281250 0.625000
vt 0.312500 0.625000
vt 0.312500 0.656250
vt 0.281250 0.656250
vt 0.375000 0.406250
vt 0.625000 0.406250
vt 0.625000 0.437500
vt 0.375000 0.437500
vt 0.312500 0.750000
vt 0.281250 0.750000
vt 0.125000 0.562500
vt 0.125000 0.593750
vt 0.125000 0.500000
vt 0.125000 0.531250
vt 0.125000 0.687500
vt 0.125000 0.718750
vt 0.125000 0.625000
vt 0.125000 0.656250
vt 0.125000 0.750000
s 0
usemtl Material
f 106/1/1 27/2/1 7/3/1 92/4/1
f 100/5/2 92/6/2 7/7/2 8/8/2
f 31/9/3 29/10/3 5/11/3 6/12/3
f 160/13/4 28/14/4 4/15/4 145/16/4
f 28/14/5 26/17/5 3/18/5 4/15/5
f 154/19/6 146/20/6 1/21/6 2/22/6
f 36/23/5 34/24/5 10/25/5 12/26/5
f 162/27/7 36/23/7 12/26/7 156/28/7
f 23/29/3 21/30/3 11/31/3 9/32/3
f 108/33/8 35/34/8 11/35/8 102/36/8
f 107/37/9 29/38/9 13/39/9 103/40/9
f 161/41/10 30/42/10 14/43/10 157/44/10
f 30/42/5 32/45/5 16/46/5 14/43/5
f 33/47/3 35/48/3 13/49/3 15/50/3
f 25/51/3 27/52/3 19/53/3 17/54/3
f 22/55/5 24/56/5 18/57/5 20/58/5
f 159/59/11 22/55/11 20/58/11 158/60/11
f 105/61/12 21/62/12 19/63/12 104/64/12
f 102/36/13 11/35/13 21/62/13 105/61/13
f 156/28/14 12/26/14 22/55/14 159/59/14
f 12/26/5 10/25/5 24/56/5 22/55/5
f 17/54/3 19/53/3 21/30/3 23/29/3
f 8/65/3 7/66/3 27/52/3 25/51/3
f 20/58/5 18/57/5 26/17/5 28/14/5
f 158/60/15 20/58/15 28/14/15 160/13/15
f 104/64/16 19/63/16 27/2/16 106/1/16
f 2/22/5 1/21/5 32/45/5 30/42/5
f 154/67/17 2/22/17 30/42/17 161/41/17
f 101/68/18 5/69/18 29/38/18 107/37/18
f 15/50/3 13/49/3 29/10/3 31/9/3
f 9/32/3 11/31/3 35/48/3 33/47/3
f 103/40/19 13/39/19 35/34/19 108/33/19
f 157/44/20 14/43/20 36/23/20 162/27/20
f 14/43/5 16/46/5 34/24/5 36/23/5
f 121/70/21 44/71/21 54/72/21 126/73/21
f 139/74/22 43/75/22 53/76/22 144/77/22
f 137/78/23 40/79/23 52/80/23 143/81/23
f 118/82/24 37/83/24 51/84/24 125/85/24
f 140/86/25 46/87/25 50/88/25 142/89/25
f 122/90/26 45/91/26 49/92/26 124/93/26
f 120/94/27 41/95/27 48/96/27 123/97/27
f 138/98/28 42/99/28 47/100/28 141/101/28
f 141/101/29 47/100/29 46/87/29 140/86/29
f 123/97/30 48/96/30 45/91/30 122/90/30
f 125/85/31 51/84/31 44/71/31 121/70/31
f 143/81/32 52/80/32 43/75/32 139/74/32
f 144/77/33 53/76/33 42/99/33 138/98/33
f 126/73/34 54/72/34 41/95/34 120/94/34
f 118/102/6 110/103/6 40/104/6 37/105/6
f 124/93/35 49/92/35 39/106/35 109/107/35
f 136/108/2 128/109/2 38/110/2 39/111/2
f 142/89/36 50/88/36 38/112/36 128/113/36
f 97/114/37 61/115/37 64/116/37 100/117/37
f 91/118/6 101/119/6 65/120/6 55/121/6
f 99/122/38 63/123/38 57/124/38 93/125/38
f 98/126/39 62/127/39 58/128/39 94/129/39
f 96/130/40 60/131/40 59/132/40 95/133/40
f 93/125/41 57/124/41 60/131/41 96/130/41
f 95/133/42 59/132/42 61/115/42 97/114/42
f 91/134/43 55/135/43 62/127/43 98/126/43
f 94/129/44 58/128/44 63/123/44 99/122/44
f 112/136/45 67/137/45 72/138/45 117/139/45
f 110/140/46 65/141/46 71/142/46 116/143/46
f 113/144/47 68/145/47 70/146/47 115/147/47
f 111/148/48 66/149/48 69/150/48 114/151/48
f 114/151/49 69/150/49 68/145/49 113/144/49
f 116/143/50 71/142/50 67/137/50 112/136/50
f 117/139/51 72/138/51 66/149/51 111/148/51
f 109/152/2 119/153/2 56/154/2 64/155/2
f 115/147/52 70/146/52 56/156/52 119/157/52
f 151/158/53 79/159/53 83/160/53 155/161/53
f 145/162/2 155/163/2 83/164/2 73/165/2
f 153/166/54 81/167/54 75/168/54 147/169/54
f 152/170/55 80/171/55 76/172/55 148/173/55
f 150/174/56 78/175/56 77/176/56 149/177/56
f 147/169/57 75/168/57 78/175/57 150/174/57
f 149/177/58 77/176/58 79/159/58 151/158/58
f 146/178/59 74/179/59 80/171/59 152/170/59
f 148/173/60 76/172/60 81/167/60 153/166/60
f 130/180/61 85/181/61 90/182/61 135/183/61
f 127/184/62 82/185/62 89/186/62 134/187/62
f 131/188/63 86/189/63 88/190/63 133/191/63
f 129/192/64 84/193/64 87/194/64 132/195/64
f 132/195/65 87/194/65 86/189/65 131/188/65
f 134/187/66 89/186/66 85/181/66 130/180/66
f 135/183/67 90/182/67 84/193/67 129/192/67
f 127/196/6 137/197/6 74/198/6 82/199/6
f 133/191/68 88/190/68 73/200/68 136/201/68
f 15/202/69 94/129/69 99/122/69 33/203/69
f 6/204/70 91/134/70 98/126/70 31/205/70
f 17/206/71 95/133/71 97/114/71 25/207/71
f 9/208/72 93/125/72 96/130/72 23/209/72
f 23/209/73 96/130/73 95/133/73 17/206/73
f 31/205/74 98/126/74 94/129/74 15/202/74
f 33/203/75 99/122/75 93/125/75 9/208/75
f 6/12/6 5/11/6 101/119/6 91/118/6
f 25/207/76 97/114/76 100/117/76 8/210/76
f 67/137/77 103/40/77 108/33/77 72/138/77
f 65/141/78 101/68/78 107/37/78 71/142/78
f 68/145/79 104/64/79 106/1/79 70/146/79
f 66/149/80 102/36/80 105/61/80 69/150/80
f 69/150/81 105/61/81 104/64/81 68/145/81
f 71/142/82 107/37/82 103/40/82 67/137/82
f 72/138/83 108/33/83 102/36/83 66/149/83
f 64/155/2 56/154/2 92/6/2 100/5/2
f 70/146/84 106/1/84 92/4/84 56/156/84
f 50/88/85 115/147/85 119/157/85 38/112/85
f 39/111/2 38/110/2 119/153/2 109/152/2
f 53/76/86 117/139/86 111/148/86 42/99/86
f 52/80/87 116/143/87 112/136/87 43/75/87
f 47/100/88 114/151/88 113/144/88 46/87/88
f 42/99/89 111/148/89 114/151/89 47/100/89
f 46/87/90 113/144/90 115/147/90 50/88/90
f 40/79/91 110/140/91 116/143/91 52/80/91
f 43/75/92 112/136/92 117/139/92 53/76/92
f 61/115/93 124/93/93 109/107/93 64/116/93
f 55/121/6 65/120/6 110/103/6 118/102/6
f 63/123/94 126/73/94 120/94/94 57/124/94
f 62/127/95 125/85/95 121/70/95 58/128/95
f 60/131/96 123/97/96 122/90/96 59/132/96
f 57/124/97 120/94/97 123/97/97 60/131/97
f 59/132/98 122/90/98 124/93/98 61/115/98
f 55/135/99 118/82/99 125/85/99 62/127/99
f 58/128/100 121/70/100 126/73/100 63/123/100
f 49/92/101 133/191/101 136/201/101 39/106/101
f 37/105/6 40/104/6 137/197/6 127/196/6
f 54/72/102 135/183/102 129/192/102 41/95/102
f 51/84/103 134/187/103 130/180/103 44/71/103
f 48/96/104 132/195/104 131/188/104 45/91/104
f 41/95/105 129/192/105 132/195/105 48/96/105
f 45/91/106 131/188/106 133/191/106 49/92/106
f 37/83/107 127/184/107 134/187/107 51/84/107
f 44/71/108 130/180/108 135/183/108 54/72/108
f 79/159/109 142/89/109 128/113/109 83/160/109
f 73/165/2 83/164/2 128/109/2 136/108/2
f 81/167/110 144/77/110 138/98/110 75/168/110
f 80/171/111 143/81/111 139/74/111 76/172/111
f 78/175/112 141/101/112 140/86/112 77/176/112
f 75/168/113 138/98/113 141/101/113 78/175/113
f 77/176/114 140/86/114 142/89/114 79/159/114
f 74/179/115 137/78/115 143/81/115 80/171/115
f 76/172/116 139/74/116 144/77/116 81/167/116
f 16/46/117 148/173/117 153/166/117 34/24/117
f 1/21/118 146/178/118 152/170/118 32/45/118
f 18/57/119 149/177/119 151/158/119 26/17/119
f 10/25/120 147/169/120 150/174/120 24/56/120
f 24/56/121 150/174/121 149/177/121 18/57/121
f 32/45/122 152/170/122 148/173/122 16/46/122
f 34/24/123 153/166/123 147/169/123 10/25/123
f 4/15/2 3/18/2 155/163/2 145/162/2
f 26/17/124 151/158/124 155/161/124 3/18/124
f 85/181/125 157/44/125 162/27/125 90/182/125
f 82/185/126 154/67/126 161/41/126 89/186/126
f 86/189/127 158/60/127 160/13/127 88/190/127
f 84/193/128 156/28/128 159/59/128 87/194/128
f 87/194/129 159/59/129 158/60/129 86/189/129
f 89/186/130 161/41/130 157/44/130 85/181/130
f 90/182/131 162/27/131 156/28/131 84/193/131
f 82/199/6 74/198/6 146/20/6 154/19/6
f 88/190/132 160/13/132 145/16/132 73/200/132
